# xmcd CD database file
#
# Track frame offsets:
#	183
#	16783
#	40548
#	56865
#	81520
#	98173
#	119533
#	141348
#	156863
#	170058
#	190263
#	215008
#	230683
#	252058
#	272570
#	292840
#	313688
#
# Disc length: 4498 seconds
#
# Revision: 2
# Processed by: cddbd v1.5.2PL0 Copyright (c) Steve Scherf et al.
# Submitted via: CDex 1.51
#
DISCID=f5119011
DTITLE=Gheorghe Zamfir - La magie de la flûte de pan
DYEAR=1900
DGENRE=
TTITLE0=Unchained melody
TTITLE1=Elvira Madigan
TTITLE2=Un été 42 (Movie Theme)
TTITLE3=Shadow of your smile
TTITLE4=Wild theme
TTITLE5=Ave Maria (Shubert)
TTITLE6=Cent mille chansons
TTITLE7=Limelight (Movie Theme)
TTITLE8=Et maintenant
TTITLE9=Sérénade
TTITLE10=Don't cry for me Argentina
TTITLE11=Run to me
TTITLE12=Amazing Grace
TTITLE13=Adagio
TTITLE14=Bilitis (Movie Theme)
TTITLE15=Out of Africa (movie Theme)
TTITLE16=Yiddish mama
EXTD=
EXTT0=
EXTT1=
EXTT2=
EXTT3=
EXTT4=
EXTT5=
EXTT6=
EXTT7=
EXTT8=
EXTT9=
EXTT10=
EXTT11=
EXTT12=
EXTT13=
EXTT14=
EXTT15=
EXTT16=
PLAYORDER=
